<svg xmlns="http://www.w3.org/2000/svg" fill="none"
     viewBox="0 0 128 128">

        <path fill="#080808" opacity="1.000000" stroke="none" d="M3.977776,30.452442
	C2.989307,18.666273 6.938468,10.524860 15.542393,6.077496
	C23.490849,1.968944 33.593620,3.051006 40.372761,8.736966
	C47.528828,14.739069 50.321022,24.568722 47.308666,33.154148
	C44.147861,42.162666 36.444920,47.935661 27.057850,48.331196
	C17.519184,48.733124 9.317914,43.735226 5.481623,35.117420
	C4.877669,33.760704 4.504662,32.301186 3.977776,30.452442
    M11.533068,34.676373
	C11.340501,35.473812 11.147933,36.271252 10.801353,37.706474
	C19.612722,33.269291 27.728189,29.182545 36.475201,24.777769
	C35.676949,37.402893 26.861952,36.017262 18.458290,35.992744
	C25.722635,41.066635 34.744907,38.686646 37.742165,31.402102
	C39.238560,27.765263 39.942593,23.802402 40.783569,19.451078
	C40.512985,18.942904 40.242397,18.434729 40.503059,17.365669
	C40.704494,16.574711 40.905933,15.783753 41.287464,14.285636
	C32.432434,18.731785 24.322878,22.803627 15.507325,27.229954
	C16.675436,14.917513 24.699678,15.188969 34.067711,16.536661
	C26.674986,10.995832 17.961195,12.917358 14.596568,19.964277
	C12.894331,23.529465 12.051817,27.507578 10.896040,31.321856
	C10.852160,31.466671 11.599057,31.851099 12.021425,32.785004
	C12.032259,33.226357 12.043093,33.667709 11.533068,34.676373
    z"/>
        <path fill="#DBDBDB" opacity="1.000000" stroke="none"
              d="M11.977459,32.123871
	C11.599057,31.851099 10.852160,31.466671 10.896040,31.321856
	C12.051817,27.507578 12.894331,23.529465 14.596568,19.964277
	C17.961195,12.917358 26.674986,10.995832 34.067711,16.536661
	C24.699678,15.188969 16.675436,14.917513 15.507325,27.229954
	C24.322878,22.803627 32.432434,18.731785 41.287464,14.285636
	C40.905933,15.783753 40.704494,16.574711 39.875355,17.675247
	C30.157585,22.697840 21.067522,27.410854 11.977459,32.123871
z"/>
        <path fill="#DFDFDF" opacity="1.000000" stroke="none"
              d="
M41.005028,19.987007
	C39.942593,23.802402 39.238560,27.765263 37.742165,31.402102
	C34.744907,38.686646 25.722635,41.066635 18.458290,35.992744
	C26.861952,36.017262 35.676949,37.402893 36.475201,24.777769
	C27.728189,29.182545 19.612722,33.269291 10.801353,37.706474
	C11.147933,36.271252 11.340501,35.473812 12.154622,34.358780
	C22.185793,29.356457 31.595409,24.671732 41.005028,19.987007
z"/>
        <path fill="#2A2A2A" opacity="1.000000" stroke="none"
              d="
M40.894299,19.719044
	C31.595409,24.671732 22.185793,29.356457 12.415051,34.075123
	C12.043093,33.667709 12.032259,33.226357 11.999441,32.454437
	C21.067522,27.410854 30.157585,22.697840 39.609730,17.955688
	C40.242397,18.434729 40.512985,18.942904 40.894299,19.719044
z"/>
</svg>
